<!-- Generator: Adobe Illustrator 17.0.0, SVG Export Plug-In  -->
<svg version="1.1"
	 xmlns="http://www.w3.org/2000/svg" xmlns:xlink="http://www.w3.org/1999/xlink" xmlns:a="http://ns.adobe.com/AdobeSVGViewerExtensions/3.0/"
	 x="0px" y="0px" width="297.327px" height="46.478px" viewBox="0 0 297.327 46.478" enable-background="new 0 0 297.327 46.478"
	 xml:space="preserve">
<defs>
</defs>
<g transform="translate(0.000000,536.000000) scale(0.100000,-0.100000)">
	<g>
		<path d="M40,5319.181l234.678-423.961h28.079l238.188,424.507h-89.406L288.562,5032.4l-159.156,286.645L40,5319.181L40,5319.181z"
			/>
		<path d="M640.588,4895.22h80.533v424.507h-80.533V4895.22z"/>
		<path d="M830.32,5251.479h89.406c49.139,0,89.406-0.273,89.406-0.683c0-0.273-212.936-354.62-212.936-354.893
			c0-0.41,72.207-0.683,160.384-0.683h160.384v68.249l-189.731,0.683c0,0,210.752,352.982,211.161,353.938
			c0.546,1.229-308.074,1.638-308.074,1.638V5251.479z"/>
		<path d="M1261.651,4896.039c0-0.409,85.311-0.819,85.311-0.819l72.344,129.672l183.725-0.682l72.89-128.99h84.082
			l-233.137,423.824l-28.801,0.819C1498.065,5319.863,1261.651,4896.722,1261.651,4896.039z M1512.26,5093.415
			c-29.21-0.137-53.37-0.137-53.643,0.136c-0.273,0.273,11.602,22.113,26.344,48.593l26.89,47.911l26.754-48.047l26.753-48.184
			L1512.26,5093.415z"/>
		<path d="M1882.168,4897.268l74.255-2.047l40.54,250.336l148.782-249.654h29.483l73.163,126.26l73.572,123.53l40.54-249.79
			l76.029-0.683l-71.252,422.869l-28.665,1.638l-177.856-308.621l-179.084,308.621h-28.801L1882.168,4897.268z"/>
		<path d="M2626.625,4895.22h80.533v182.907h15.424c28.255,0.136,100.052,2.593,113.702,4.095
			c72.071,7.644,117.661,36.991,132.948,85.311c6.416,20.338,5.051,52.688-3.139,72.343c-14.878,36.035-52.552,63.062-101.69,72.89
			c-23.614,4.777-46.409,5.87-143.186,6.552l-94.593,0.683V4895.22z M2809.804,5250.113c37.4-2.184,53.234-6.961,67.02-20.202
			c10.101-9.828,13.786-17.881,13.923-30.302c0-13.104-4.504-22.932-14.605-32.077c-13.24-11.875-29.62-17.199-60.878-19.792
			c-17.881-1.501-91.999-1.911-101.827-0.546l-6.279,0.956v51.596v51.733h39.994
			C2768.991,5251.479,2797.246,5250.796,2809.804,5250.113z"/>
	</g>
	<g>
		<g>
			<path fill="#FFFFFF" d="M0,5359.181l234.678-423.961h28.079l238.188,424.507h-89.406L248.562,5072.4L89.406,5359.044L0,5359.181
				L0,5359.181z"/>
			<path fill="#FFFFFF" d="M600.588,4935.22h80.533v424.507h-80.533V4935.22z"/>
			<path fill="#FFFFFF" d="M790.32,5291.479h89.406c49.139,0,89.406-0.273,89.406-0.683c0-0.273-212.936-354.62-212.936-354.893
				c0-0.41,72.207-0.683,160.384-0.683h160.384v68.249l-189.731,0.683c0,0,210.752,352.982,211.161,353.938
				c0.546,1.229-308.074,1.638-308.074,1.638V5291.479z"/>
			<path fill="#FFFFFF" d="M1221.651,4936.039c0-0.409,85.311-0.819,85.311-0.819l72.344,129.672l183.725-0.682l72.89-128.99h84.082
				l-233.137,423.824l-28.801,0.819C1458.065,5359.863,1221.651,4936.722,1221.651,4936.039z M1472.26,5133.415
				c-29.21-0.137-53.37-0.137-53.643,0.136c-0.273,0.273,11.602,22.113,26.344,48.593l26.89,47.911l26.754-48.047l26.753-48.184
				L1472.26,5133.415z"/>
			<path fill="#FFFFFF" d="M1842.168,4937.268l74.255-2.047l40.54,250.336l148.782-249.654h29.483l73.163,126.26l73.572,123.53
				l40.54-249.79l76.029-0.683l-71.252,422.869l-28.665,1.638l-177.856-308.621l-179.084,308.621h-28.801L1842.168,4937.268z"/>
			<path fill="#FFFFFF" d="M2586.625,4935.22h80.533v182.907h15.424c28.255,0.136,100.052,2.593,113.702,4.095
				c72.071,7.644,117.661,36.991,132.948,85.311c6.416,20.338,5.051,52.688-3.139,72.343c-14.878,36.035-52.552,63.062-101.69,72.89
				c-23.614,4.777-46.409,5.87-143.186,6.552l-94.593,0.683V4935.22z M2769.804,5290.113c37.4-2.184,53.234-6.961,67.02-20.202
				c10.101-9.828,13.786-17.881,13.923-30.302c0-13.104-4.504-22.932-14.605-32.077c-13.24-11.875-29.62-17.199-60.878-19.792
				c-17.881-1.501-91.999-1.911-101.827-0.546l-6.279,0.956v51.596v51.733h39.994
				C2728.991,5291.479,2757.246,5290.796,2769.804,5290.113z"/>
		</g>
	</g>
</g>
</svg>
